<svg width="214" height="74" viewBox="0 0 214 74" fill="none" xmlns="http://www.w3.org/2000/svg">
<g filter="url(#filter0_dddd_11_806)">
<path fill-rule="evenodd" clip-rule="evenodd" d="M56.1054 0.5C66.6562 0.5 73.5 7.34375 73.5 17.8946V56.1054C73.5 66.6562 66.6562 73.5 56.1054 73.5H17.8946C7.34375 73.5 0.5 66.6562 0.5 56.1054V17.8946C0.5 7.34375 7.34375 0.5 17.8946 0.5H56.1054Z" fill="url(#paint0_linear_11_806)"/>
</g>
<mask id="mask0_11_806" style="mask-type:alpha" maskUnits="userSpaceOnUse" x="0" y="0" width="74" height="74">
<path fill-rule="evenodd" clip-rule="evenodd" d="M56.1054 0.5C66.6562 0.5 73.5 7.34375 73.5 17.8946V56.1054C73.5 66.6562 66.6562 73.5 56.1054 73.5H17.8946C7.34375 73.5 0.5 66.6562 0.5 56.1054V17.8946C0.5 7.34375 7.34375 0.5 17.8946 0.5H56.1054Z" fill="white"/>
</mask>
<g mask="url(#mask0_11_806)">
<path d="M74.8693 23.4639H-0.868164V50.5347H74.8693V23.4639Z" fill="#959595" stroke="#E2E2E2" stroke-width="0.5"/>
<mask id="mask1_11_806" style="mask-type:alpha" maskUnits="userSpaceOnUse" x="-4" y="24" width="82" height="26">
<path d="M77.1516 24.0332H-3.14844V49.9482H77.1516V24.0332Z" fill="white"/>
</mask>
<g mask="url(#mask1_11_806)">
<path d="M77.2728 23.9072H-3.27051V36.3172H77.2728V23.9072Z" fill="#C9C9C9" stroke="white" stroke-width="0.4"/>
<path d="M77.2728 37.6729H-3.27051V50.0829H77.2728V37.6729Z" fill="#C9C9C9" stroke="white" stroke-width="0.4"/>
</g>
</g>
<g filter="url(#filter1_d_11_806)">
<path fill-rule="evenodd" clip-rule="evenodd" d="M37.0005 68.6339C54.4711 68.6339 68.6339 54.4711 68.6339 37.0005C68.6339 19.5299 54.4711 5.36719 37.0005 5.36719C19.5299 5.36719 5.36719 19.5299 5.36719 37.0005C5.36719 54.4711 19.5299 68.6339 37.0005 68.6339Z" fill="white"/>
</g>
<path fill-rule="evenodd" clip-rule="evenodd" d="M36.9995 68.6329C54.4701 68.6329 68.6329 54.4701 68.6329 36.9995C68.6329 19.5289 54.4701 5.36621 36.9995 5.36621C19.5289 5.36621 5.36621 19.5289 5.36621 36.9995C5.36621 54.4701 19.5289 68.6329 36.9995 68.6329Z" stroke="url(#paint1_linear_11_806)" stroke-width="0.5"/>
<path fill-rule="evenodd" clip-rule="evenodd" d="M36.9999 65.5915C52.7906 65.5915 65.5915 52.7906 65.5915 36.9999C65.5915 21.2091 52.7906 8.4082 36.9999 8.4082C21.2091 8.4082 8.4082 21.2091 8.4082 36.9999C8.4082 52.7906 21.2091 65.5915 36.9999 65.5915Z" fill="#D9D9D9"/>
<path fill-rule="evenodd" clip-rule="evenodd" d="M37.0001 65.5919C51.7829 65.5919 63.7667 53.6081 63.7667 38.8253C63.7667 24.0425 51.7829 12.0586 37.0001 12.0586C22.2173 12.0586 10.2334 24.0425 10.2334 38.8253C10.2334 53.6081 22.2173 65.5919 37.0001 65.5919Z" fill="white"/>
<path d="M37.1515 62.4886C51.1448 62.4886 62.4886 51.1448 62.4886 37.1515C62.4886 23.1582 51.1448 11.8145 37.1515 11.8145C23.1582 11.8145 11.8145 23.1582 11.8145 37.1515C11.8145 51.1448 23.1582 62.4886 37.1515 62.4886Z" fill="#0489FF" stroke="url(#paint2_linear_11_806)" stroke-width="0.8"/>
<path fill-rule="evenodd" clip-rule="evenodd" d="M36.9905 58.8815C48.7446 58.8815 58.2731 49.353 58.2731 37.5989C58.2731 25.8449 48.7446 16.3164 36.9905 16.3164C25.2365 16.3164 15.708 25.8449 15.708 37.5989C15.708 49.353 25.2365 58.8815 36.9905 58.8815ZM36.9905 57.6815C48.4132 57.6815 57.6731 48.4216 57.6731 36.9989C57.6731 25.5763 48.4132 16.3164 36.9905 16.3164C25.5679 16.3164 16.308 25.5763 16.308 36.9989C16.308 48.4216 25.5679 57.6815 36.9905 57.6815Z" fill="#4EA7FF"/>
<g filter="url(#filter2_d_11_806)">
<path fill-rule="evenodd" clip-rule="evenodd" d="M36.9999 56.4665C47.751 56.4665 56.4665 47.751 56.4665 36.9999C56.4665 26.2487 47.751 17.5332 36.9999 17.5332C26.2487 17.5332 17.5332 26.2487 17.5332 36.9999C17.5332 47.751 26.2487 56.4665 36.9999 56.4665Z" fill="#F2F2F2"/>
</g>
<path d="M37.0003 56.7712C47.9195 56.7712 56.7712 47.9195 56.7712 37.0003C56.7712 26.0812 47.9195 17.2295 37.0003 17.2295C26.0812 17.2295 17.2295 26.0812 17.2295 37.0003C17.2295 47.9195 26.0812 56.7712 37.0003 56.7712Z" stroke="#0667C2"/>
<path fill-rule="evenodd" clip-rule="evenodd" d="M36.9367 47.6966C42.5642 47.6966 47.1262 43.2169 47.1262 37.691C47.1262 32.1651 42.5642 27.6855 36.9367 27.6855C31.3091 27.6855 26.7471 32.1651 26.7471 37.691C26.7471 43.2169 31.3091 47.6966 36.9367 47.6966Z" fill="white"/>
<g filter="url(#filter3_ddd_11_806)">
<path fill-rule="evenodd" clip-rule="evenodd" d="M36.9749 46.6831C42.3366 46.6831 46.6831 42.3366 46.6831 36.9749C46.6831 31.6131 42.3366 27.2666 36.9749 27.2666C31.6131 27.2666 27.2666 31.6131 27.2666 36.9749C27.2666 42.3366 31.6131 46.6831 36.9749 46.6831Z" fill="#D9D9D9"/>
</g>
<g filter="url(#filter4_d_11_806)">
<path d="M41.2589 23.6172H32.7422V50.3839H41.2589V23.6172Z" fill="#333333"/>
</g>
<path fill-rule="evenodd" clip-rule="evenodd" d="M33.958 26.0498H40.0413V50.3831H33.958V26.0498ZM37.966 41.0015L40.0335 38.9339V40.3456V44.5494L38.0071 42.7257C37.4946 42.2643 37.4756 41.4919 37.966 41.0015ZM36.1138 33.7015C36.6042 34.1919 36.5852 34.9643 36.0726 35.4257L33.9601 37.327V31.5478L36.1138 33.7015Z" fill="#666666"/>
<g filter="url(#filter5_d_11_806)">
<path fill-rule="evenodd" clip-rule="evenodd" d="M35.1755 33.3493L32.7422 35.7827V30.916L35.1755 33.3493Z" fill="#D9D9D9"/>
</g>
<g filter="url(#filter6_d_11_806)">
<path fill-rule="evenodd" clip-rule="evenodd" d="M38.8252 40.6501L41.2585 38.2168V43.0835L38.8252 40.6501Z" fill="#D9D9D9"/>
</g>
<path d="M94.412 27.96C95.452 27.96 96.364 28.056 97.148 28.248C97.948 28.424 98.612 28.696 99.14 29.064C99.684 29.416 100.092 29.848 100.364 30.36C100.636 30.872 100.772 31.44 100.772 32.064C100.772 32.96 100.54 33.704 100.076 34.296C99.628 34.872 99.012 35.304 98.228 35.592C97.46 35.88 96.572 36.048 95.564 36.096L96.284 35.736V36.312L95.756 35.856C96.844 35.92 97.82 36.12 98.684 36.456C99.548 36.776 100.228 37.248 100.724 37.872C101.22 38.496 101.468 39.272 101.468 40.2C101.468 40.952 101.316 41.624 101.012 42.216C100.724 42.808 100.284 43.312 99.692 43.728C99.116 44.144 98.404 44.464 97.556 44.688C96.708 44.896 95.724 45 94.604 45H85.148V43.224H85.388C85.74 43.224 86.028 43.168 86.252 43.056C86.492 42.944 86.612 42.712 86.612 42.36V30.6C86.612 30.248 86.492 30.016 86.252 29.904C86.028 29.792 85.74 29.736 85.388 29.736H85.148V27.96H94.412ZM91.196 35.16H92.948C93.524 35.16 93.988 35.056 94.34 34.848C94.708 34.64 94.972 34.328 95.132 33.912C95.292 33.496 95.372 32.984 95.372 32.376C95.372 31.848 95.276 31.408 95.084 31.056C94.908 30.688 94.652 30.408 94.316 30.216C93.98 30.024 93.572 29.928 93.092 29.928H92.06V43.032H93.212C93.804 43.032 94.3 42.928 94.7 42.72C95.116 42.496 95.428 42.16 95.636 41.712C95.844 41.264 95.948 40.688 95.948 39.984C95.948 39.36 95.844 38.832 95.636 38.4C95.444 37.968 95.14 37.64 94.724 37.416C94.308 37.176 93.764 37.056 93.092 37.056H91.196V35.16ZM109.426 38.352C109.426 39.168 109.49 39.864 109.618 40.44C109.746 41 109.938 41.456 110.194 41.808C110.466 42.144 110.802 42.392 111.202 42.552C111.602 42.696 112.066 42.768 112.594 42.768C113.074 42.768 113.514 42.688 113.914 42.528C114.314 42.352 114.65 42.088 114.922 41.736C115.21 41.384 115.426 40.928 115.57 40.368C115.714 39.808 115.786 39.128 115.786 38.328V30.216C115.786 30.136 115.746 30.064 115.666 30C115.586 29.936 115.482 29.888 115.354 29.856C115.242 29.808 115.114 29.776 114.97 29.76C114.826 29.744 114.674 29.736 114.514 29.736H114.322V27.96H119.458V29.736H119.194C118.97 29.736 118.762 29.76 118.57 29.808C118.378 29.856 118.226 29.944 118.114 30.072C118.018 30.2 117.97 30.392 117.97 30.648V38.328C117.97 39.56 117.802 40.616 117.466 41.496C117.13 42.36 116.658 43.072 116.05 43.632C115.442 44.176 114.73 44.584 113.914 44.856C113.098 45.112 112.218 45.24 111.274 45.24C110.154 45.24 109.146 45.104 108.25 44.832C107.37 44.56 106.602 44.152 105.946 43.608C105.306 43.048 104.818 42.336 104.482 41.472C104.146 40.592 103.978 39.544 103.978 38.328V30.6C103.978 30.248 103.858 30.016 103.618 29.904C103.394 29.792 103.106 29.736 102.754 29.736H102.514V27.96H110.866V29.736H110.65C110.522 29.736 110.386 29.744 110.242 29.76C110.098 29.76 109.962 29.776 109.834 29.808C109.706 29.824 109.602 29.848 109.522 29.88C109.458 29.896 109.426 29.928 109.426 29.976V38.352ZM129.247 27.96V29.736H128.887C128.503 29.736 128.191 29.792 127.951 29.904C127.711 30.016 127.591 30.248 127.591 30.6V42.984H129.511C130.135 42.984 130.639 42.96 131.023 42.912C131.423 42.848 131.719 42.744 131.911 42.6C132.103 42.456 132.207 42.24 132.223 41.952L132.487 39.168H134.839V45H120.679V43.224H120.919C121.271 43.224 121.559 43.168 121.783 43.056C122.023 42.944 122.143 42.712 122.143 42.36V30.6C122.143 30.248 122.023 30.016 121.783 29.904C121.559 29.792 121.271 29.736 120.919 29.736H120.679V27.96H129.247ZM134.592 27.96H142.872V29.736H142.512C142.352 29.736 142.184 29.744 142.008 29.76C141.832 29.776 141.68 29.8 141.552 29.832C141.44 29.864 141.384 29.912 141.384 29.976L143.4 41.28L143.04 41.352L146.04 27.96H150.96L153.72 41.184L153.36 41.208L155.472 30.168C155.472 30.072 155.416 29.992 155.304 29.928C155.208 29.864 155.072 29.816 154.896 29.784C154.736 29.752 154.576 29.736 154.416 29.736H154.056V27.96H158.808V29.736H158.688C158.368 29.736 158.112 29.808 157.92 29.952C157.728 30.096 157.592 30.368 157.512 30.768L154.632 45H149.496L146.832 31.584H147.192L144.312 45H138.912L135.888 30.456C135.84 30.152 135.712 29.96 135.504 29.88C135.296 29.784 135.04 29.736 134.736 29.736H134.592V27.96ZM161.629 37.608H168.037L168.061 39.6H161.605L161.629 37.608ZM164.197 29.616L165.133 30.912L161.34 42.792C161.34 42.872 161.405 42.952 161.533 43.032C161.661 43.096 161.821 43.144 162.013 43.176C162.205 43.208 162.413 43.224 162.637 43.224H162.949V45H158.053V43.224H158.173C158.477 43.224 158.709 43.16 158.869 43.032C159.045 42.888 159.197 42.608 159.325 42.192L163.933 27.96H169.141L173.893 42.552C173.973 42.824 174.109 43.008 174.301 43.104C174.493 43.184 174.741 43.224 175.045 43.224H175.141V45H166.717V43.224H167.101C167.309 43.224 167.509 43.216 167.701 43.2C167.909 43.184 168.077 43.16 168.205 43.128C168.349 43.08 168.421 43.032 168.421 42.984L164.197 29.616ZM184.007 37.32L189.167 36.912L191.903 42.552C191.999 42.728 192.095 42.864 192.191 42.96C192.287 43.056 192.391 43.128 192.503 43.176C192.631 43.208 192.775 43.224 192.935 43.224H193.127V45H187.175L184.007 37.32ZM182.903 42.984C182.903 43.032 182.935 43.072 182.999 43.104C183.063 43.12 183.143 43.144 183.239 43.176C183.351 43.192 183.471 43.208 183.599 43.224C183.743 43.224 183.879 43.224 184.007 43.224H184.223V45H176.015V43.224H176.255C176.607 43.224 176.895 43.168 177.119 43.056C177.359 42.944 177.479 42.712 177.479 42.36V30.6C177.479 30.248 177.359 30.016 177.119 29.904C176.895 29.792 176.607 29.736 176.255 29.736H176.015V27.96H185.327C186.767 27.96 187.983 28.16 188.975 28.56C189.983 28.96 190.743 29.528 191.255 30.264C191.783 31 192.047 31.864 192.047 32.856C192.047 33.896 191.799 34.8 191.303 35.568C190.823 36.336 190.095 36.936 189.119 37.368C188.143 37.8 186.935 38.032 185.495 38.064C185.431 38.08 185.351 38.096 185.255 38.112C185.175 38.112 185.087 38.112 184.991 38.112C184.911 38.112 184.823 38.112 184.727 38.112H182.423V36.144H184.151C184.695 36.144 185.135 36.016 185.471 35.76C185.807 35.488 186.055 35.112 186.215 34.632C186.391 34.136 186.479 33.544 186.479 32.856C186.479 32.248 186.391 31.728 186.215 31.296C186.055 30.864 185.815 30.536 185.495 30.312C185.175 30.072 184.767 29.952 184.271 29.952H182.903V42.984ZM194.226 45V43.224H194.466C194.818 43.224 195.106 43.168 195.33 43.056C195.57 42.944 195.69 42.712 195.69 42.36V30.6C195.69 30.248 195.57 30.016 195.33 29.904C195.106 29.792 194.818 29.736 194.466 29.736H194.226V27.96H202.962V29.736H202.698C202.442 29.736 202.194 29.744 201.954 29.76C201.714 29.776 201.514 29.8 201.354 29.832C201.21 29.864 201.138 29.912 201.138 29.976V42.984C201.138 43.032 201.194 43.08 201.306 43.128C201.418 43.16 201.562 43.184 201.738 43.2C201.914 43.216 202.09 43.224 202.266 43.224H202.458V45H194.226ZM203.922 45V43.224H204.138C204.314 43.224 204.482 43.216 204.642 43.2C204.818 43.184 204.962 43.16 205.074 43.128C205.202 43.08 205.266 43.032 205.266 42.984L201.738 36.984V36.288L207.21 29.928C207.226 29.864 207.146 29.824 206.97 29.808C206.794 29.776 206.57 29.76 206.298 29.76C206.042 29.744 205.794 29.736 205.554 29.736H205.29V27.96H211.602V29.736H211.122C210.866 29.736 210.634 29.76 210.426 29.808C210.234 29.856 210.05 29.944 209.874 30.072C209.714 30.184 209.53 30.36 209.322 30.6L204.282 36.48L205.746 33.72L211.002 42.432C211.13 42.64 211.25 42.8 211.362 42.912C211.49 43.024 211.626 43.104 211.77 43.152C211.93 43.2 212.106 43.224 212.298 43.224H212.562V45H203.922Z" fill="#777777"/>
<defs>
<filter id="filter0_dddd_11_806" x="0.1" y="0.1" width="73.8" height="73.8" filterUnits="userSpaceOnUse" color-interpolation-filters="sRGB">
<feFlood flood-opacity="0" result="BackgroundImageFix"/>
<feColorMatrix in="SourceAlpha" type="matrix" values="0 0 0 0 0 0 0 0 0 0 0 0 0 0 0 0 0 0 127 0" result="hardAlpha"/>
<feOffset dy="0.4"/>
<feComposite in2="hardAlpha" operator="out"/>
<feColorMatrix type="matrix" values="0 0 0 0 0.592157 0 0 0 0 0.592157 0 0 0 0 0.592157 0 0 0 1 0"/>
<feBlend mode="normal" in2="BackgroundImageFix" result="effect1_dropShadow_11_806"/>
<feColorMatrix in="SourceAlpha" type="matrix" values="0 0 0 0 0 0 0 0 0 0 0 0 0 0 0 0 0 0 127 0" result="hardAlpha"/>
<feOffset dy="-0.4"/>
<feComposite in2="hardAlpha" operator="out"/>
<feColorMatrix type="matrix" values="0 0 0 0 0.580392 0 0 0 0 0.580392 0 0 0 0 0.580392 0 0 0 1 0"/>
<feBlend mode="normal" in2="effect1_dropShadow_11_806" result="effect2_dropShadow_11_806"/>
<feColorMatrix in="SourceAlpha" type="matrix" values="0 0 0 0 0 0 0 0 0 0 0 0 0 0 0 0 0 0 127 0" result="hardAlpha"/>
<feOffset dx="0.4"/>
<feComposite in2="hardAlpha" operator="out"/>
<feColorMatrix type="matrix" values="0 0 0 0 0.584314 0 0 0 0 0.584314 0 0 0 0 0.584314 0 0 0 1 0"/>
<feBlend mode="normal" in2="effect2_dropShadow_11_806" result="effect3_dropShadow_11_806"/>
<feColorMatrix in="SourceAlpha" type="matrix" values="0 0 0 0 0 0 0 0 0 0 0 0 0 0 0 0 0 0 127 0" result="hardAlpha"/>
<feOffset dx="-0.4"/>
<feComposite in2="hardAlpha" operator="out"/>
<feColorMatrix type="matrix" values="0 0 0 0 0.588235 0 0 0 0 0.588235 0 0 0 0 0.588235 0 0 0 1 0"/>
<feBlend mode="normal" in2="effect3_dropShadow_11_806" result="effect4_dropShadow_11_806"/>
<feBlend mode="normal" in="SourceGraphic" in2="effect4_dropShadow_11_806" result="shape"/>
</filter>
<filter id="filter1_d_11_806" x="5.36719" y="0.367188" width="63.2666" height="68.2666" filterUnits="userSpaceOnUse" color-interpolation-filters="sRGB">
<feFlood flood-opacity="0" result="BackgroundImageFix"/>
<feColorMatrix in="SourceAlpha" type="matrix" values="0 0 0 0 0 0 0 0 0 0 0 0 0 0 0 0 0 0 127 0" result="hardAlpha"/>
<feOffset dy="-5"/>
<feComposite in2="hardAlpha" operator="out"/>
<feColorMatrix type="matrix" values="0 0 0 0 0.85098 0 0 0 0 0.85098 0 0 0 0 0.85098 0 0 0 1 0"/>
<feBlend mode="normal" in2="BackgroundImageFix" result="effect1_dropShadow_11_806"/>
<feBlend mode="normal" in="SourceGraphic" in2="effect1_dropShadow_11_806" result="shape"/>
</filter>
<filter id="filter2_d_11_806" x="17.5332" y="17.5332" width="38.9336" height="40.4336" filterUnits="userSpaceOnUse" color-interpolation-filters="sRGB">
<feFlood flood-opacity="0" result="BackgroundImageFix"/>
<feColorMatrix in="SourceAlpha" type="matrix" values="0 0 0 0 0 0 0 0 0 0 0 0 0 0 0 0 0 0 127 0" result="hardAlpha"/>
<feOffset dy="1.5"/>
<feComposite in2="hardAlpha" operator="out"/>
<feColorMatrix type="matrix" values="0 0 0 0 0.807843 0 0 0 0 0.807843 0 0 0 0 0.807843 0 0 0 1 0"/>
<feBlend mode="normal" in2="BackgroundImageFix" result="effect1_dropShadow_11_806"/>
<feBlend mode="normal" in="SourceGraphic" in2="effect1_dropShadow_11_806" result="shape"/>
</filter>
<filter id="filter3_ddd_11_806" x="27.2666" y="26.2666" width="19.417" height="22.417" filterUnits="userSpaceOnUse" color-interpolation-filters="sRGB">
<feFlood flood-opacity="0" result="BackgroundImageFix"/>
<feColorMatrix in="SourceAlpha" type="matrix" values="0 0 0 0 0 0 0 0 0 0 0 0 0 0 0 0 0 0 127 0" result="hardAlpha"/>
<feOffset dy="2"/>
<feComposite in2="hardAlpha" operator="out"/>
<feColorMatrix type="matrix" values="0 0 0 0 0.764706 0 0 0 0 0.764706 0 0 0 0 0.764706 0 0 0 1 0"/>
<feBlend mode="normal" in2="BackgroundImageFix" result="effect1_dropShadow_11_806"/>
<feColorMatrix in="SourceAlpha" type="matrix" values="0 0 0 0 0 0 0 0 0 0 0 0 0 0 0 0 0 0 127 0" result="hardAlpha"/>
<feOffset dy="1"/>
<feComposite in2="hardAlpha" operator="out"/>
<feColorMatrix type="matrix" values="0 0 0 0 0.72549 0 0 0 0 0.72549 0 0 0 0 0.72549 0 0 0 1 0"/>
<feBlend mode="normal" in2="effect1_dropShadow_11_806" result="effect2_dropShadow_11_806"/>
<feColorMatrix in="SourceAlpha" type="matrix" values="0 0 0 0 0 0 0 0 0 0 0 0 0 0 0 0 0 0 127 0" result="hardAlpha"/>
<feOffset dy="-1"/>
<feComposite in2="hardAlpha" operator="out"/>
<feColorMatrix type="matrix" values="0 0 0 0 0.807843 0 0 0 0 0.807843 0 0 0 0 0.807843 0 0 0 1 0"/>
<feBlend mode="normal" in2="effect2_dropShadow_11_806" result="effect3_dropShadow_11_806"/>
<feBlend mode="normal" in="SourceGraphic" in2="effect3_dropShadow_11_806" result="shape"/>
</filter>
<filter id="filter4_d_11_806" x="32.7422" y="23.6172" width="8.5166" height="27.7666" filterUnits="userSpaceOnUse" color-interpolation-filters="sRGB">
<feFlood flood-opacity="0" result="BackgroundImageFix"/>
<feColorMatrix in="SourceAlpha" type="matrix" values="0 0 0 0 0 0 0 0 0 0 0 0 0 0 0 0 0 0 127 0" result="hardAlpha"/>
<feOffset dy="1"/>
<feColorMatrix type="matrix" values="0 0 0 0 1 0 0 0 0 1 0 0 0 0 1 0 0 0 1 0"/>
<feBlend mode="normal" in2="BackgroundImageFix" result="effect1_dropShadow_11_806"/>
<feBlend mode="normal" in="SourceGraphic" in2="effect1_dropShadow_11_806" result="shape"/>
</filter>
<filter id="filter5_d_11_806" x="32.7422" y="30.916" width="2.43359" height="6.36621" filterUnits="userSpaceOnUse" color-interpolation-filters="sRGB">
<feFlood flood-opacity="0" result="BackgroundImageFix"/>
<feColorMatrix in="SourceAlpha" type="matrix" values="0 0 0 0 0 0 0 0 0 0 0 0 0 0 0 0 0 0 127 0" result="hardAlpha"/>
<feOffset dy="1.5"/>
<feComposite in2="hardAlpha" operator="out"/>
<feColorMatrix type="matrix" values="0 0 0 0 1 0 0 0 0 1 0 0 0 0 1 0 0 0 1 0"/>
<feBlend mode="normal" in2="BackgroundImageFix" result="effect1_dropShadow_11_806"/>
<feBlend mode="normal" in="SourceGraphic" in2="effect1_dropShadow_11_806" result="shape"/>
</filter>
<filter id="filter6_d_11_806" x="38.8252" y="38.2168" width="2.43359" height="6.36621" filterUnits="userSpaceOnUse" color-interpolation-filters="sRGB">
<feFlood flood-opacity="0" result="BackgroundImageFix"/>
<feColorMatrix in="SourceAlpha" type="matrix" values="0 0 0 0 0 0 0 0 0 0 0 0 0 0 0 0 0 0 127 0" result="hardAlpha"/>
<feOffset dy="1.5"/>
<feComposite in2="hardAlpha" operator="out"/>
<feColorMatrix type="matrix" values="0 0 0 0 1 0 0 0 0 1 0 0 0 0 1 0 0 0 1 0"/>
<feBlend mode="normal" in2="BackgroundImageFix" result="effect1_dropShadow_11_806"/>
<feBlend mode="normal" in="SourceGraphic" in2="effect1_dropShadow_11_806" result="shape"/>
</filter>
<linearGradient id="paint0_linear_11_806" x1="0.5" y1="0.5" x2="0.5" y2="73.5" gradientUnits="userSpaceOnUse">
<stop stop-color="#D2D2D2"/>
<stop offset="1" stop-color="#9F9F9F"/>
</linearGradient>
<linearGradient id="paint1_linear_11_806" x1="5.36621" y1="5.36621" x2="5.36621" y2="68.6329" gradientUnits="userSpaceOnUse">
<stop stop-color="#808080" stop-opacity="0.7"/>
<stop offset="1" stop-color="#4B4B4B" stop-opacity="0.7"/>
</linearGradient>
<linearGradient id="paint2_linear_11_806" x1="12.0578" y1="12.0578" x2="12.0578" y2="62.2453" gradientUnits="userSpaceOnUse">
<stop stop-color="#053360"/>
<stop offset="1" stop-color="#0667C2"/>
</linearGradient>
</defs>
</svg>
