<svg width="48" height="48" viewBox="0 0 48 48" fill="none" xmlns="http://www.w3.org/2000/svg">
<path d="M29.5835 13.25C28.3171 13.2498 27.1011 13.7467 26.1972 14.6337C25.2934 15.5208 24.7737 16.7271 24.7502 17.9934L24.7035 20.6184C24.701 20.7594 24.6687 20.8984 24.6086 21.0261C24.5486 21.1538 24.4622 21.2673 24.3552 21.3593C24.2481 21.4512 24.1228 21.5194 23.9875 21.5595C23.8522 21.5996 23.71 21.6105 23.5702 21.5917L20.9668 21.2367C17.5452 20.77 14.2652 19.195 11.1168 16.5734C10.1218 22.09 12.0668 25.9117 16.7552 28.86L19.6668 30.69C19.8049 30.7769 19.9197 30.8962 20.0011 31.0376C20.0825 31.179 20.128 31.3382 20.1338 31.5012C20.1395 31.6643 20.1053 31.8263 20.0341 31.9731C19.9629 32.1198 19.8568 32.247 19.7252 32.3434L17.0718 34.2834C18.6502 34.3834 20.1485 34.3134 21.3918 34.0667C29.2552 32.4967 34.4835 26.58 34.4835 16.82C34.4835 16.0234 32.7952 13.25 29.5835 13.25ZM21.4168 17.9334C21.4459 16.3268 21.9483 14.7645 22.8611 13.4421C23.7739 12.1197 25.0565 11.0959 26.5483 10.499C28.0402 9.90205 29.675 9.75849 31.2481 10.0863C32.8211 10.4141 34.2625 11.1986 35.3918 12.3417C36.5768 12.3334 37.5852 12.6334 39.8385 11.265C39.2818 13.9984 39.0052 15.1867 37.8168 16.8184C37.8168 29.5534 29.9885 35.7484 22.0435 37.3334C16.5985 38.42 8.67682 36.635 6.41016 34.2634C7.56516 34.175 12.2652 33.67 14.9818 31.68C12.6818 30.1634 3.53516 24.78 9.54682 10.31C12.3685 13.605 15.2302 15.8467 18.1302 17.0384C20.0585 17.83 20.5335 17.8134 21.4185 17.935L21.4168 17.9334Z" fill="#1DA1F2"/>
</svg>
