<svg width="192" height="192" viewBox="0 0 192 192" fill="none" xmlns="http://www.w3.org/2000/svg">
<mask id="mask0_18_11128" style="mask-type:luminance" maskUnits="userSpaceOnUse" x="0" y="0" width="192" height="192">
<path d="M192 0H0V192H192V0Z" fill="white"/>
</mask>
<g mask="url(#mask0_18_11128)">
<g opacity="0.327999">
<path d="M29.3549 28.3191C33.8323 28.3191 37.4676 31.9544 37.4676 36.4318C37.4676 40.9092 33.8323 44.5445 29.3549 44.5445C24.8775 44.5445 21.2422 40.9092 21.2422 36.4318C21.2422 31.9544 24.8775 28.3191 29.3549 28.3191Z" fill="#00FFE4"/>
</g>
<g opacity="0.327999">
<path d="M82.7856 167.318C87.263 167.318 90.8983 170.953 90.8983 175.43C90.8983 179.908 87.263 183.543 82.7856 183.543C78.3082 183.543 74.6729 179.908 74.6729 175.43C74.6729 170.953 78.3082 167.318 82.7856 167.318Z" fill="#00FFE4"/>
</g>
<g opacity="0.327999">
<path d="M168.365 136.874C172.842 136.874 176.477 140.51 176.477 144.987C176.477 149.464 172.842 153.1 168.365 153.1C163.887 153.1 160.252 149.464 160.252 144.987C160.252 140.51 163.887 136.874 168.365 136.874Z" fill="#00FFE4"/>
</g>
<g opacity="0.327999">
<path d="M176.76 64.0825C181.238 64.0825 184.873 67.7178 184.873 72.1952C184.873 76.6726 181.238 80.3079 176.76 80.3079C172.283 80.3079 168.647 76.6726 168.647 72.1952C168.647 67.7178 172.283 64.0825 176.76 64.0825Z" fill="#00FFE4"/>
</g>
<g opacity="0.327999">
<path d="M118.975 2.75391C123.452 2.75391 127.088 6.38921 127.088 10.8666C127.088 15.344 123.452 18.9793 118.975 18.9793C114.498 18.9793 110.862 15.344 110.862 10.8666C110.862 6.38921 114.498 2.75391 118.975 2.75391Z" fill="#00FFE4"/>
</g>
<g opacity="0.327999">
<path d="M14.8324 114.813C19.3098 114.813 22.9451 118.448 22.9451 122.926C22.9451 127.403 19.3098 131.038 14.8324 131.038C10.355 131.038 6.71973 127.403 6.71973 122.926C6.71973 118.448 10.355 114.813 14.8324 114.813Z" fill="#00FFE4"/>
</g>
<mask id="mask1_18_11128" style="mask-type:luminance" maskUnits="userSpaceOnUse" x="0" y="0" width="192" height="192">
<path d="M0 0H192V192H0V0Z" fill="white"/>
</mask>
<g mask="url(#mask1_18_11128)">
<path d="M96.6763 42.3662C123.914 42.3662 146.028 64.4809 146.028 91.7183C146.028 118.956 123.914 141.07 96.6763 141.07C69.4389 141.07 47.3242 118.956 47.3242 91.7183C47.3242 64.4809 69.4389 42.3662 96.6763 42.3662Z" fill="#00FFE4"/>
</g>
<mask id="mask2_18_11128" style="mask-type:luminance" maskUnits="userSpaceOnUse" x="53" y="56" width="87" height="74">
<path d="M53.0693 56.1465H139.832V129.544H53.0693V56.1465Z" fill="white"/>
</mask>
<g mask="url(#mask2_18_11128)">
<mask id="mask3_18_11128" style="mask-type:luminance" maskUnits="userSpaceOnUse" x="62" y="86" width="45" height="40">
<path d="M71.7477 88.971L86.7726 102.369L102.38 86.9932L106.696 104.841L85.6831 125.367L62.0469 100.814L71.7477 88.971Z" fill="white"/>
</mask>
<g mask="url(#mask3_18_11128)">
<path d="M126.691 70.7812C122.136 67.9439 119.224 71.8266 119.224 71.8266C119.224 71.8266 88.163 104.531 86.819 105.875C85.475 107.219 84.4272 105.595 84.4272 105.595L74.951 95.4297C74.951 95.4297 70.816 91.6392 67.887 95.4297C64.958 99.2201 67.1978 101.805 67.1978 101.805C67.1978 101.805 79.9476 115.416 79.7753 115.416C85.8056 119.723 91.319 115.588 91.319 115.588L126.542 78.9946C126.542 78.9946 131.246 73.6186 126.691 70.7812Z" fill="#FBFBFB"/>
</g>
</g>
</g>
</svg>
